<mxfile host="app.diagrams.net" modified="2023-05-30T15:42:47.148Z" agent="Mozilla/5.0 (Windows NT 10.0; Win64; x64) AppleWebKit/537.36 (KHTML, like Gecko) Chrome/113.0.0.0 Safari/537.36" etag="Ue-wIEnycrqJqPYlVlxb" version="21.3.5" type="device">
  <diagram name="Page-1" id="hhhB7THpOj6KJaeT_R8F">
    <mxGraphModel dx="1489" dy="428" grid="1" gridSize="10" guides="1" tooltips="1" connect="1" arrows="1" fold="1" page="1" pageScale="1" pageWidth="827" pageHeight="1169" math="0" shadow="0">
      <root>
        <mxCell id="0" />
        <mxCell id="1" parent="0" />
        <mxCell id="mwpZoM34W3NjhRyXzfsJ-3" value="&lt;div style=&quot;text-align: left;&quot;&gt;&lt;span style=&quot;background-color: initial;&quot;&gt;&lt;font style=&quot;font-size: 24px;&quot;&gt;5&lt;/font&gt;&lt;/span&gt;&lt;/div&gt;&lt;div style=&quot;text-align: left;&quot;&gt;&lt;span style=&quot;background-color: initial;&quot;&gt;&lt;font style=&quot;font-size: 24px;&quot;&gt;3 0&lt;/font&gt;&lt;/span&gt;&lt;/div&gt;&lt;div style=&quot;text-align: left;&quot;&gt;&lt;span style=&quot;background-color: initial;&quot;&gt;&lt;font style=&quot;font-size: 24px;&quot;&gt;2 2 1 4&lt;/font&gt;&lt;/span&gt;&lt;/div&gt;&lt;div style=&quot;text-align: left;&quot;&gt;&lt;span style=&quot;background-color: initial;&quot;&gt;&lt;font style=&quot;font-size: 24px;&quot;&gt;2 2 1 2&lt;/font&gt;&lt;/span&gt;&lt;/div&gt;&lt;div style=&quot;text-align: left;&quot;&gt;&lt;span style=&quot;background-color: initial;&quot;&gt;&lt;font style=&quot;font-size: 24px;&quot;&gt;5 1 3&lt;/font&gt;&lt;/span&gt;&lt;/div&gt;&lt;div style=&quot;text-align: left;&quot;&gt;&lt;span style=&quot;background-color: initial;&quot;&gt;&lt;font style=&quot;font-size: 24px;&quot;&gt;1 1 4&lt;/font&gt;&lt;/span&gt;&lt;/div&gt;&lt;div style=&quot;text-align: left;&quot;&gt;&lt;span style=&quot;background-color: initial;&quot;&gt;&lt;font style=&quot;font-size: 24px;&quot;&gt;3&lt;/font&gt;&lt;/span&gt;&lt;/div&gt;" style="text;html=1;align=center;verticalAlign=middle;resizable=0;points=[];autosize=1;strokeColor=none;fillColor=none;" vertex="1" parent="1">
          <mxGeometry x="130" y="90" width="100" height="220" as="geometry" />
        </mxCell>
        <mxCell id="mwpZoM34W3NjhRyXzfsJ-4" value="" style="ellipse;whiteSpace=wrap;html=1;aspect=fixed;fillColor=none;strokeColor=#b85450;" vertex="1" parent="1">
          <mxGeometry x="135" y="97" width="30" height="30" as="geometry" />
        </mxCell>
        <mxCell id="mwpZoM34W3NjhRyXzfsJ-5" value="" style="endArrow=none;html=1;rounded=0;fillColor=#f8cecc;strokeColor=#b85450;" edge="1" parent="1">
          <mxGeometry width="50" height="50" relative="1" as="geometry">
            <mxPoint x="165" y="97" as="sourcePoint" />
            <mxPoint x="215" y="47" as="targetPoint" />
          </mxGeometry>
        </mxCell>
        <mxCell id="mwpZoM34W3NjhRyXzfsJ-6" value="&lt;b&gt;N &lt;/b&gt;- number of operations&lt;br&gt;Next N lines are the operations (operation 1, 2, 3 etc)" style="text;html=1;align=center;verticalAlign=middle;resizable=0;points=[];autosize=1;strokeColor=none;fillColor=none;" vertex="1" parent="1">
          <mxGeometry x="70" y="11" width="310" height="40" as="geometry" />
        </mxCell>
        <mxCell id="mwpZoM34W3NjhRyXzfsJ-7" value="" style="ellipse;whiteSpace=wrap;html=1;aspect=fixed;fillColor=none;strokeColor=#E5CCFF;" vertex="1" parent="1">
          <mxGeometry x="135" y="156" width="30" height="30" as="geometry" />
        </mxCell>
        <mxCell id="mwpZoM34W3NjhRyXzfsJ-8" value="" style="ellipse;whiteSpace=wrap;html=1;aspect=fixed;fillColor=none;strokeColor=#CCE5FF;" vertex="1" parent="1">
          <mxGeometry x="155" y="156" width="30" height="30" as="geometry" />
        </mxCell>
        <mxCell id="mwpZoM34W3NjhRyXzfsJ-9" value="" style="endArrow=none;html=1;rounded=0;fillColor=#f8cecc;strokeColor=#FFCCFF;" edge="1" parent="1">
          <mxGeometry width="50" height="50" relative="1" as="geometry">
            <mxPoint x="70" y="137" as="sourcePoint" />
            <mxPoint x="130" y="167" as="targetPoint" />
          </mxGeometry>
        </mxCell>
        <mxCell id="mwpZoM34W3NjhRyXzfsJ-10" value="&lt;b&gt;T &lt;/b&gt;- amount of time to &lt;br&gt;process operation 2" style="text;html=1;align=center;verticalAlign=middle;resizable=0;points=[];autosize=1;strokeColor=none;fillColor=none;" vertex="1" parent="1">
          <mxGeometry x="-10" y="97" width="130" height="40" as="geometry" />
        </mxCell>
        <mxCell id="mwpZoM34W3NjhRyXzfsJ-12" value="&lt;b&gt;D &lt;/b&gt;- number of dependencies" style="text;html=1;align=center;verticalAlign=middle;resizable=0;points=[];autosize=1;strokeColor=none;fillColor=none;" vertex="1" parent="1">
          <mxGeometry x="229" y="83.5" width="170" height="30" as="geometry" />
        </mxCell>
        <mxCell id="mwpZoM34W3NjhRyXzfsJ-14" value="" style="endArrow=none;html=1;rounded=0;fillColor=#f8cecc;strokeColor=#CCE5FF;entryX=1;entryY=0;entryDx=0;entryDy=0;" edge="1" parent="1">
          <mxGeometry width="50" height="50" relative="1" as="geometry">
            <mxPoint x="242" y="109" as="sourcePoint" />
            <mxPoint x="184.60660171779432" y="157.39339828220574" as="targetPoint" />
          </mxGeometry>
        </mxCell>
        <mxCell id="mwpZoM34W3NjhRyXzfsJ-15" value="" style="ellipse;whiteSpace=wrap;html=1;fillColor=none;strokeColor=#66CC00;" vertex="1" parent="1">
          <mxGeometry x="179" y="156" width="45.75" height="30.5" as="geometry" />
        </mxCell>
        <mxCell id="mwpZoM34W3NjhRyXzfsJ-16" value="" style="endArrow=none;html=1;rounded=0;fillColor=#d5e8d4;strokeColor=#82b366;entryX=1.041;entryY=0.36;entryDx=0;entryDy=0;entryPerimeter=0;" edge="1" parent="1" target="mwpZoM34W3NjhRyXzfsJ-3">
          <mxGeometry width="50" height="50" relative="1" as="geometry">
            <mxPoint x="320" y="160" as="sourcePoint" />
            <mxPoint x="228.9966017177943" y="175.39339828220574" as="targetPoint" />
          </mxGeometry>
        </mxCell>
        <mxCell id="mwpZoM34W3NjhRyXzfsJ-17" value="dependencies - operations 1 and 4" style="text;html=1;align=center;verticalAlign=middle;resizable=0;points=[];autosize=1;strokeColor=none;fillColor=none;" vertex="1" parent="1">
          <mxGeometry x="250" y="133" width="210" height="30" as="geometry" />
        </mxCell>
        <mxCell id="mwpZoM34W3NjhRyXzfsJ-18" value="" style="ellipse;whiteSpace=wrap;html=1;aspect=fixed;fillColor=none;strokeColor=#FF9933;" vertex="1" parent="1">
          <mxGeometry x="135" y="271" width="30" height="30" as="geometry" />
        </mxCell>
        <mxCell id="mwpZoM34W3NjhRyXzfsJ-19" value="" style="endArrow=none;html=1;rounded=0;fillColor=#ffe6cc;strokeColor=#d79b00;exitX=0;exitY=0;exitDx=0;exitDy=0;" edge="1" parent="1" source="mwpZoM34W3NjhRyXzfsJ-18">
          <mxGeometry width="50" height="50" relative="1" as="geometry">
            <mxPoint x="185" y="290" as="sourcePoint" />
            <mxPoint x="90" y="230" as="targetPoint" />
          </mxGeometry>
        </mxCell>
        <mxCell id="mwpZoM34W3NjhRyXzfsJ-20" value="&lt;b&gt;Statistic&lt;/b&gt;" style="text;html=1;align=center;verticalAlign=middle;resizable=0;points=[];autosize=1;strokeColor=none;fillColor=none;" vertex="1" parent="1">
          <mxGeometry x="50" y="200" width="70" height="30" as="geometry" />
        </mxCell>
      </root>
    </mxGraphModel>
  </diagram>
</mxfile>
